Coordinates
version=1
nRows=8
nColumns=63
inDegrees=yes

Units are S.I. units (second, meters, Newtons, ...)
If the header above contains a line with 'inDegrees', this indicates whether rotational values are in degrees (yes) or radians (no).

endheader
time	pelvis_tilt	pelvis_list	pelvis_rotation	pelvis_tx	pelvis_ty	pelvis_tz	hip_flexion_r	hip_adduction_r	hip_rotation_r	knee_angle_r	knee_angle_r_beta	ankle_angle_r	subtalar_angle_r	mtp_angle_r	hip_flexion_l	hip_adduction_l	hip_rotation_l	knee_angle_l	knee_angle_l_beta	ankle_angle_l	subtalar_angle_l	mtp_angle_l	L5_S1_Flex_Ext	L5_S1_Lat_Bending	L5_S1_axial_rotation	L4_L5_Flex_Ext	L4_L5_Lat_Bending	L4_L5_axial_rotation	L3_L4_Flex_Ext	L3_L4_Lat_Bending	L3_L4_axial_rotation	L2_L3_Flex_Ext	L2_L3_Lat_Bending	L2_L3_axial_rotation	L1_L2_Flex_Ext	L1_L2_Lat_Bending	L1_L2_axial_rotation	L1_T12_Flex_Ext	L1_T12_Lat_Bending	L1_T12_axial_rotation	Abs_r3	Abs_r2	Abs_r1	Abs_t1	Abs_t2	neck_flexion	neck_bending	neck_rotation	arm_flex_r	arm_add_r	arm_rot_r	elbow_flex_r	pro_sup_r	wrist_flex_r	wrist_dev_r	arm_flex_l	arm_add_l	arm_rot_l	elbow_flex_l	pro_sup_l	wrist_flex_l	wrist_dev_l
      0.00000000	     -1.86224565	     -4.83912561	     82.81183266	      0.19915887	      0.89382392	      0.64670038	      3.64837040	     -2.43005367	     -3.23772100	      8.04122363	      0.14034583	     24.35627073	     13.95934472	      0.00000000	      2.70309217	      2.06870097	      6.30797793	      7.70444741	      0.13446797	     16.78604341	    -15.67043437	      0.00000000	      0.04530664	      0.01525747	      0.79554344	      0.08413897	      0.02029244	      0.84526490	      0.07443428	      0.03709702	      0.84526490	      0.05178096	      0.03709702	      0.69610051	      0.04207175	      0.03111304	      0.64637904	      0.02588822	      0.02363382	      0.59665758	      0.32362081	      0.17259557	      4.42457395	      0.00000000	      0.00000000	     21.32485562	      0.44461787	      1.97565954	     15.27154588	    -13.37527654	     52.22400682	     63.85679743	     84.23781491	     10.08117634	     15.49033070	     19.63439777	    -12.75387460	     53.47379289	     59.96934584	     77.90728384	     13.08697968	     32.22932318
      0.01694915	     -1.89827055	     -4.87779603	     82.36983834	      0.19952842	      0.89333209	      0.64804948	      3.64110084	     -2.43311935	     -3.72295907	      7.40361922	      0.12921753	     24.31063208	     14.76148108	      0.00000000	      2.77751665	      2.11334994	      6.54373821	      7.65795487	      0.13365653	     16.70437028	    -15.96730043	      0.00000000	      0.04650345	      0.01333848	      0.89864658	      0.08636155	      0.01774018	      0.95481199	      0.07640051	      0.03243119	      0.95481199	      0.05314879	      0.03243119	      0.78631576	      0.04318310	      0.02719984	      0.73015035	      0.02657207	      0.02066131	      0.67398494	      0.33216948	      0.15088759	      4.99800269	      0.00000000	      0.00000000	     21.25557901	      0.19236562	      1.51531267	     15.77991188	    -14.20284872	     53.15916881	     64.69264346	     87.26041163	     11.73663392	     13.70241445	     19.95455779	    -12.53249415	     53.59601420	     59.71440198	     83.13266249	     18.79071073	     31.83712011
      0.03389831	     -1.90566972	     -4.95606712	     82.08752036	      0.19988479	      0.89289442	      0.64905666	      3.63221676	     -2.37675874	     -3.74692191	      6.83926454	      0.11936768	     24.14489233	     14.95605524	      0.00000000	      2.90857764	      2.09429495	      6.45844448	      7.66904535	      0.13385009	     16.53885595	    -15.86602528	      0.00000000	      0.05276481	      0.01531284	      0.95449589	      0.09798953	      0.02036608	      1.01415188	      0.08668731	      0.03723164	      1.01415188	      0.06030490	      0.03723164	      0.83518390	      0.04899740	      0.03122594	      0.77552791	      0.03014981	      0.02371959	      0.71587192	      0.37689376	      0.17322191	      5.30861978	      0.00000000	      0.00000000	     21.23682977	      0.23503645	      1.61410648	     16.26561864	    -14.78676750	     54.19959811	     65.36161068	     87.83410075	     12.41895020	     13.52718378	     20.40973983	    -12.67376312	     54.90113533	     59.93875607	     84.36142049	     19.91214686	     32.04557916
      0.05084746	     -1.96248020	     -4.99875120	     81.94963837	      0.19989410	      0.89256879	      0.64958011	      3.64014671	     -2.40674022	     -3.83700650	      6.54901030	      0.11430179	     24.15722464	     15.04822039	      0.00000000	      2.97869113	      2.15023520	      6.31694280	      7.65415457	      0.13359020	     16.23490459	    -15.70612032	      0.00000000	      0.05379786	      0.01176614	      0.98247194	      0.09990800	      0.01564897	      1.04387644	      0.08838450	      0.02860819	      1.04387644	      0.06148557	      0.02860819	      0.85966295	      0.04995669	      0.02399351	      0.79825845	      0.03074009	      0.01822575	      0.73685396	      0.38427270	      0.13310092	      5.46421421	      0.00000000	      0.00000000	     21.29184638	      0.25609207	      1.65388450	     16.48368783	    -15.19157071	     54.72371348	     65.86936673	     88.20421328	     12.96516376	     13.40427640	     20.53477922	    -12.68999063	     55.48558085	     60.06705936	     85.10528572	     20.75610484	     32.04101800
      0.06779661	     -1.89953014	     -4.84536075	     81.92498518	      0.20008509	      0.89275135	      0.64996932	      3.43018725	     -2.34062478	     -3.94676918	      6.37615052	      0.11128482	     24.09209952	     15.12925806	      0.00000000	      2.86564779	      2.04068216	      5.49099474	      7.73439049	      0.13499058	     16.21913272	    -14.43035946	      0.00000000	      0.02069600	      0.01458229	      0.98194688	      0.03843453	      0.01939444	      1.04331856	      0.03400145	      0.03545538	      1.04331856	      0.02365345	      0.03545538	      0.85920352	      0.01921830	      0.02973620	      0.79783184	      0.01182569	      0.02258796	      0.73646016	      0.14782943	      0.16495776	      5.46129397	      0.00000000	      0.00000000	     21.24773893	      0.34210675	      1.74613376	     16.81167024	    -15.46903348	     55.44235978	     66.10969858	     88.38816483	     12.67944212	     13.20036030	     20.86679280	    -12.81440472	     56.50985407	     60.09704279	     83.88917090	     20.23729137	     32.28110016
      0.08474576	     -1.93675238	     -4.99691793	     81.84816398	      0.20018113	      0.89246199	      0.65011281	      3.64221954	     -2.35923209	     -4.01798749	      6.42892974	      0.11220599	     24.15453809	     15.28269609	      0.00000000	      3.04107349	      2.06594737	      5.51447920	      7.74772328	      0.13522328	     15.69890217	    -14.71831442	      0.00000000	      0.03894008	      0.01281188	      0.98115289	      0.07231563	      0.01703980	      1.04247494	      0.06397466	      0.03115080	      1.04247494	      0.04450462	      0.03115080	      0.85850878	      0.03615976	      0.02612598	      0.79718672	      0.02225036	      0.01984560	      0.73586467	      0.27814512	      0.14493053	      5.45687802	      0.00000000	      0.00000000	     21.34773906	      0.46569793	      2.04220775	     16.74773446	    -15.35866164	     54.99405291	     66.15991517	     88.42058668	     14.77099542	     14.61003941	     20.42935091	    -12.49965507	     55.25274135	     59.82588047	     85.72391871	     23.56001047	     31.88381122
      0.10169492	     -1.90903578	     -5.00846692	     81.93087170	      0.20012862	      0.89256274	      0.64991742	      3.64432729	     -2.33376779	     -4.05769608	      6.47019380	      0.11292618	     24.15765904	     15.23251678	      0.00000000	      3.06226338	      2.02131146	      5.22122441	      7.78671744	      0.13590386	     15.56144559	    -14.31321208	      0.00000000	      0.03943120	      0.01689421	      0.94795677	      0.07322768	      0.02246930	      1.00720406	      0.06478152	      0.04107659	      1.00720406	      0.04506592	      0.04107659	      0.82946217	      0.03661581	      0.03445068	      0.77021487	      0.02253099	      0.02616913	      0.71096757	      0.28165311	      0.19111071	      5.27225115	      0.00000000	      0.00000000	     21.35072518	      0.55859218	      2.33537822	     16.82798433	    -15.37736988	     55.16778085	     66.16898139	     88.43052258	     15.31699174	     15.12990086	     20.17055165	    -12.52806601	     55.15922402	     59.84708314	     84.45481424	     23.06040016	     31.88666005
      0.11864407	     -1.85277342	     -4.97670356	     82.11054274	      0.19997543	      0.89280961	      0.64948895	      3.58753764	     -2.29488470	     -4.09242088	      6.55348448	      0.11437988	     24.15846842	     15.14293011	      0.00000000	      2.98704827	      1.98538960	      5.50434956	      7.74057072	      0.13509845	     15.40925189	    -14.55231927	      0.00000000	      0.03942510	      0.02190681	      0.90672214	      0.07321636	      0.02913606	      0.96339227	      0.06477150	      0.05326423	      0.96339227	      0.04505895	      0.05326423	      0.79338187	      0.03661015	      0.04467237	      0.73671174	      0.02252750	      0.03393365	      0.68004161	      0.28160957	      0.24781426	      5.04291653	      0.00000000	      0.00000000	     21.30939783	      0.49025161	      2.33074457	     16.86178866	    -15.40693774	     55.31671033	     66.10325484	     88.40632937	     15.47958595	     15.29875624	     19.98522949	    -12.53995336	     55.20136451	     59.68592665	     82.01481283	     22.47050798	     31.95839748
